<svg viewBox="0 0 160 160" xmlns="http://www.w3.org/2000/svg">
  <path fill="#0066DC" d="M80 0c44.2 0 80 35.8 80 80s-35.8 80-80 80S0 124.2 0 80 35.8 0 80 0z"/>
  <path fill="#FFF" d="M95.2 56.3c-1.6 0-3.1.1-4.6.3-7.5 1-14.2 4.8-18.5 10.7-2.7-5.6-8.3-9.4-14.5-9.4-5.6 0-10.8 2.9-14.1 7.5C41.8 68.4 39 75.2 39 82.8c0 9.1 6.2 17 15.2 19.5 1.4.4 2.9.6 4.4.6 1.8 0 3.6-.3 5.3-.9 1.3 1.5 2.7 2.9 4.3 4 4.4 3.1 10 4.7 15.8 4.7 5.2 0 10.2-1.2 14.7-3.6 4.6-2.4 8.5-5.9 11.3-10.1 3.6-5.5 5.5-12.1 5.5-18.8 0-7.8-2.9-15.2-8.2-20.9-5.3-5.8-12.4-9-20-9.1zm-11.8 33.9c-1.6 0-3.2-.2-4.8-.7-1.3-.4-2.5-1-3.6-1.7-.8-.6-1.4-1.3-2-2.1-.3-.3-.5-.7-.7-1-.2-.4-.3-.7-.4-1.1 0-.2-.1-.4-.2-.6-.1-.5-.2-1-.2-1.5-.2-2.1-.2-4.3 0-6.4.1-.8.2-1.5.4-2.3.1-.3.2-.6.4-.9.1-.3.2-.6.3-.8.2-.3.3-.6.5-.8.4-.6.8-1.1 1.2-1.5 1.3-1.3 3.1-2.1 5-2.1.8 0 1.5.1 2.3.4.7.2 1.4.6 2 .9.3.2.6.5.9.8.4.3.7.7 1 1.1.4.4.7.9 1 1.3.4.6.7 1.3.9 2 .1.2.1.4.2.7.1.3.2.6.3.9.1.3.2.6.3.9.2.5.2 1 .2 1.5.2 2.1.2 4.3 0 6.4-.1.8-.2 1.5-.4 2.3-.1.3-.2.6-.4.9-.1.3-.2.6-.4.9-.2.3-.4.6-.6.9-.2.3-.5.5-.7.8-.7.8-1.6 1.4-2.6 1.8-.8.3-1.6.5-2.4.5zm8.1-15.4c-.4-1.3-1-2.4-1.7-3.4-.7-.9-1.5-1.7-2.5-2.3-1-.6-2.1-1-3.3-1.1-.4 0-.7 0-1 0 .1.6.1 1.3.1 1.9-.1 1.3-.3 2.6-.6 3.9-.2.7-.5 1.3-.9 1.9-.4.5-.8.9-1.3 1.2-.4.2-.9.3-1.3.3-.4 0-.8-.1-1.2-.2-.3-.1-.6-.2-.9-.4-.2-.1-.5-.3-.7-.5s-.4-.4-.6-.7c-.3-.4-.5-.8-.7-1.3-.3-.8-.5-1.6-.6-2.4-.2-1.1-.2-2.2 0-3.3.2-1 .5-2 1-2.9.5-.9 1.2-1.8 2-2.4.9-.7 2-1.2 3.1-1.6 1.1-.3 2.2-.5 3.4-.4 2.2.2 4.3 1 6.1 2.2 1.8 1.3 3.3 3.1 4.3 5.3.5 1.1.9 2.3 1 3.5.1.8 0 1.5-.4 2.1-.4.6-1 1-1.7 1.1-.4.1-.9 0-1.3-.2-.4-.2-.7-.5-.9-.9z"/>
</svg>
